<?xml version="1.0" encoding="UTF-8" standalone="no"?>
<!-- Created with Inkscape (http://www.inkscape.org/) -->

<svg
   xmlns:dc="http://purl.org/dc/elements/1.1/"
   xmlns:cc="http://creativecommons.org/ns#"
   xmlns:rdf="http://www.w3.org/1999/02/22-rdf-syntax-ns#"
   xmlns:svg="http://www.w3.org/2000/svg"
   xmlns="http://www.w3.org/2000/svg"
   xmlns:sodipodi="http://sodipodi.sourceforge.net/DTD/sodipodi-0.dtd"
   xmlns:inkscape="http://www.inkscape.org/namespaces/inkscape"
   width="85mm"
   height="54mm"
   id="svg3001"
   version="1.1"
   inkscape:version="0.48.5 r10040"
   sodipodi:docname="New document 4">
  <defs
     id="defs3" />
  <sodipodi:namedview
     id="base"
     pagecolor="#ffffff"
     bordercolor="#666666"
     borderopacity="1.0"
     inkscape:pageopacity="0.0"
     inkscape:pageshadow="2"
     inkscape:zoom="1.2"
     inkscape:cx="338.84069"
     inkscape:cy="-117.03164"
     inkscape:document-units="mm"
     inkscape:current-layer="layer1"
     showgrid="false"
     inkscape:window-width="1680"
     inkscape:window-height="1028"
     inkscape:window-x="1912"
     inkscape:window-y="142"
     inkscape:window-maximized="1" />
  <metadata
     id="metadata3005">
    <rdf:RDF>
      <cc:Work
         rdf:about="">
        <dc:format>image/svg+xml</dc:format>
        <dc:type
           rdf:resource="http://purl.org/dc/dcmitype/StillImage" />
        <dc:title></dc:title>
      </cc:Work>
    </rdf:RDF>
  </metadata>
  <g
     inkscape:label="Layer 1"
     inkscape:groupmode="layer"
     id="layer1">
    <path
       style="fill:none;stroke:#000000;stroke-width:1;stroke-linecap:butt;stroke-linejoin:miter;stroke-opacity:1"
       d="m 59.952436,138.21991 c 2.537265,-1.12206 -2.157646,5.89325 6.977478,1.68309 9.135123,-4.21016 24.680088,-31.84131 18.395169,-45.443332 -6.284919,-13.602017 -35.682121,-4.823455 -40.596236,-17.391892 -3.152352,-8.062521 1.733766,-17.215338 12.686324,-23.00218 10.952558,-5.786841 42.626559,-6.554842 47.573719,1.683087 4.94714,8.23793 -8.24612,11.781604 -8.24612,11.781604"
       id="path3010"
       inkscape:connector-curvature="0"
       sodipodi:nodetypes="czzazzc" />
    <path
       style="fill:none;stroke:#000000;stroke-width:1;stroke-linecap:butt;stroke-linejoin:miter;stroke-opacity:1"
       d="m 101.50015,93.197353 c 0,0 -2.04901,6.796417 -0.15858,8.836207 1.89042,2.03978 5.33328,2.84186 7.77037,1.26232 2.43709,-1.57957 1.26863,-8.976469 1.26863,-8.976469 0,0 -1.25847,7.239909 0,8.836189 1.25846,1.59629 3.01301,0.98181 3.01301,0.98181 l 0,0"
       id="path3014"
       inkscape:connector-curvature="0"
       sodipodi:nodetypes="czzczcc" />
    <path
       style="fill:none;stroke:#000000;stroke-width:1;stroke-linecap:butt;stroke-linejoin:miter;stroke-opacity:1"
       d="m 114.05961,96.14276 c 0,0 2.57591,3.238 4.59878,3.64667 2.02287,0.40868 6.026,-1.54281 6.026,-1.54281 0,0 -2.72919,13.79501 -2.69583,19.07497 0.0334,5.27996 1.90295,12.34263 1.90295,12.34263 l 0,0"
       id="path3016"
       inkscape:connector-curvature="0"
       sodipodi:nodetypes="czczcc" />
    <path
       style="fill:none;stroke:#000000;stroke-width:1;stroke-linecap:butt;stroke-linejoin:miter;stroke-opacity:1"
       d="m 141.87438,98.80764 c 0,0 -5.62195,-0.47937 -7.13607,1.26232 -1.51413,1.74167 -1.28997,5.95645 0.47574,6.73234 2.22432,0.97742 5.03194,-0.43565 6.34316,-4.20771 1.21723,-3.50164 0.95147,-18.513954 0.95147,-18.513954 0,0 -1.33531,14.900844 -0.15857,18.373684 1.17675,3.47286 2.78778,2.95992 4.75737,3.50644 1.16439,0.32308 3.64732,-0.28052 3.64732,-0.28052"
       id="path3018"
       inkscape:connector-curvature="0"
       sodipodi:nodetypes="czssczac" />
    <path
       style="fill:none;stroke:#000000;stroke-width:1;stroke-linecap:butt;stroke-linejoin:miter;stroke-opacity:1"
       d="m 149.48801,100.36165 c 0,0 3.98221,0.63388 5.45008,0.43668 1.46787,-0.19718 3.3315,0.10539 3.2441,-1.1645 -0.17189,-2.49739 -5.0354,-1.99459 -6.61794,-1.16449 -1.58257,0.83008 -2.12479,1.89662 -1.94647,3.63906 0.17831,1.74245 1.29325,3.41541 3.89292,4.51244 2.59966,1.09704 11.02992,-1.01892 11.02992,-1.01892 l 0.38928,-0.14558"
       id="path3020"
       inkscape:connector-curvature="0"
       sodipodi:nodetypes="czszzzcc" />
    <path
       style="fill:none;stroke:#000000;stroke-width:1;stroke-linecap:butt;stroke-linejoin:miter;stroke-opacity:1"
       d="m 163.88514,77.039724 c 0,0 11.36209,1.838873 17.4437,2.524631 6.0816,0.685757 19.02949,1.542829 19.02949,1.542829"
       id="path3024"
       inkscape:connector-curvature="0"
       sodipodi:nodetypes="czc" />
    <path
       style="fill:none;stroke:#000000;stroke-width:1;stroke-linecap:butt;stroke-linejoin:miter;stroke-opacity:1"
       d="m 180.8531,77.460497 c 0,0 -0.31588,11.879975 0.31716,18.934723 0.63303,7.05475 3.80589,23.2827 3.80589,23.2827"
       id="path3026"
       inkscape:connector-curvature="0"
       sodipodi:nodetypes="czc" />
    <path
       style="fill:none;stroke:#000000;stroke-width:1;stroke-linecap:butt;stroke-linejoin:miter;stroke-opacity:1"
       d="m 166.10525,96.25495 26.64128,1.96361"
       id="path3028"
       inkscape:connector-curvature="0" />
    <path
       style="fill:none;stroke:#000000;stroke-width:1;stroke-linecap:butt;stroke-linejoin:miter;stroke-opacity:1"
       d="m 203.52989,101.02371 c 0,0 -5.96306,-1.22156 -8.2461,0.56102 -2.28306,1.7826 -3.52263,3.90084 -1.58579,5.8908 1.93686,1.98997 4.52078,1.36072 6.50173,0.56104 1.82798,-0.73791 2.8222,-2.6576 3.48875,-4.34798 0.66655,-1.69037 -0.63432,-2.66488 -0.63432,-2.66488 0,0 1.09384,3.62729 2.69584,5.32977 1.60199,1.70245 4.91596,1.12205 4.91596,1.12205"
       id="path3030"
       inkscape:connector-curvature="0"
       sodipodi:nodetypes="czzazczc" />
    <path
       style="fill:none;stroke:#000000;stroke-width:1;stroke-linecap:butt;stroke-linejoin:miter;stroke-opacity:1"
       d="m 208.92159,101.10786 c 0,0 1.19579,3.82908 2.85442,4.76874 1.65863,0.93967 4.43925,1.30668 5.70884,0.28053 1.26959,-1.02618 0.95148,-4.20773 0.95148,-4.20773 0,0 -0.49399,18.48754 0.31716,24.12424 0.81114,5.63669 0.98857,8.49461 2.69584,9.67775 1.70727,1.18314 1.74437,0 1.74437,0"
       id="path3032"
       inkscape:connector-curvature="0"
       sodipodi:nodetypes="czzczzc" />
    <path
       style="fill:none;stroke:#000000;stroke-width:1;stroke-linecap:butt;stroke-linejoin:miter;stroke-opacity:1"
       d="m 221.13217,103.07146 c 0,0 7.07992,0.91122 8.24612,-0.14027 1.16619,-1.05146 0.97184,-0.74684 0,-1.54281 -0.97184,-0.79599 -4.73972,-0.49865 -6.18459,0.42077 -1.44486,0.91941 -2.56285,1.89312 -1.74437,3.64669 0.81848,1.75355 5.65471,2.7218 7.77036,2.80514 2.11568,0.0833 4.12307,-1.12206 4.12307,-1.12206"
       id="path3034"
       inkscape:connector-curvature="0"
       sodipodi:nodetypes="czzzzzc" />
    <path
       style="fill:none;stroke:#000000;stroke-width:1;stroke-linecap:butt;stroke-linejoin:miter;stroke-opacity:1"
       d="m 276.79542,145.56492 c 0,0 0.21985,2.93554 -1.90392,3.67271 -23.76673,8.24953 -58.37588,-2.64178 -87.58022,-3.30544 -15.863,-0.36049 -31.7395,-0.91934 -47.59794,-0.36728 -17.42337,0.60653 -52.167353,4.04 -52.167353,4.04"
       id="path3036"
       inkscape:connector-curvature="0"
       sodipodi:nodetypes="caaac" />
    <path
       sodipodi:type="arc"
       id="path3038"
       sodipodi:cx="272.21353"
       sodipodi:cy="142.3542"
       sodipodi:rx="0.44270834"
       sodipodi:ry="0.44270834"
       d="m 272.65624,142.3542 a 0.44270834,0.44270834 0 1 1 -0.88542,0 0.44270834,0.44270834 0 1 1 0.88542,0 z"
       transform="matrix(1.0766434,0,0,1.1854102,-16.478418,-23.21291)"
       style="stroke-width:0.8851762" />
    <path
       sodipodi:type="arc"
       id="path3038-1"
       sodipodi:cx="272.21353"
       sodipodi:cy="142.3542"
       sodipodi:rx="0.44270834"
       sodipodi:ry="0.44270834"
       d="m 272.65624,142.3542 a 0.44270834,0.44270834 0 1 1 -0.88542,0 0.44270834,0.44270834 0 1 1 0.88542,0 z"
       transform="matrix(1.0766434,0,0,1.1854102,-69.89001,-32.998718)"
       style="stroke-width:0.8851762" />
    <path
       sodipodi:type="arc"
       id="path3038-1-7"
       sodipodi:cx="272.21353"
       sodipodi:cy="142.3542"
       sodipodi:rx="0.44270834"
       sodipodi:ry="0.44270834"
       d="m 272.65624,142.3542 a 0.44270834,0.44270834 0 1 1 -0.88542,0 0.44270834,0.44270834 0 1 1 0.88542,0 z"
       transform="matrix(0.8079486,0,0,1.1854102,-34.978384,-48.95251)"
       style="stroke-width:1.0218186" />
  </g>
</svg>
